# xmcd
#
# Track frame offsets:
#	150
#	14421
#	28957
#	46967
#	60274
#	72125
#	89771
#	107919
#	126363
#	141098
#	159461
#	173942
#
# Disc length: 2392
#
# Revision: 2
# Processed by: cddbd v1.5.1PL0 Copyright (c) Steve Scherf et al.
# Submitted via: VisiTrax 2.9.5.180 - For more info visit www.synapsa.com
# Normalized: r1:DSETVAR1
#
DISCID=a809560c
DTITLE=Various Artist - CDX 179 January 1998
DYEAR=1998
DGENRE=Country
TTITLE0=Matraca Berg - Back In The Saddle
TTITLE1=Rhett Adkins - Better Than It Used To Be
TTITLE2=Toby Keith - Dream Walkin'
TTITLE3=Jim Lauderdale - Goodbye Song
TTITLE4=Sherrie Austin - Put Your Heart Into It
TTITLE5=Mavericks - To Be With You
TTITLE6=Patty Loveless - To Have You Back Again
TTITLE7=Tim Ryan - Tried, True and Tested
TTITLE8=Martina McBride/Jim Brickman - Valentine
TTITLE9=Scooter Lee - Ribbon Of Highway
TTITLE10=Kacey Jones - I Got The Message (When You Didn't Call)
TTITLE11=Kacey Jones - Comedy bit
EXTD=YEAR: 1998
EXTT0=
EXTT1=
EXTT2=
EXTT3=
EXTT4=
EXTT5=
EXTT6=
EXTT7=
EXTT8=
EXTT9=
EXTT10=
EXTT11=
PLAYORDER=
